<?xml version="1.0" standalone="no"?>
<!DOCTYPE svg PUBLIC "-//W3C//DTD SVG 20010904//EN"
 "http://www.w3.org/TR/2001/REC-SVG-20010904/DTD/svg10.dtd">
<svg version="1.0" xmlns="http://www.w3.org/2000/svg"
 width="1024.000000pt" height="1024.000000pt" viewBox="0 0 1024.000000 1024.000000"
 preserveAspectRatio="xMidYMid meet">
<metadata>
Created by potrace 1.11, written by Peter Selinger 2001-2013
</metadata>
<g transform="translate(0.000000,1024.000000) scale(0.100000,-0.100000)"
fill="#000000" stroke="none">
<path d="M847 10224 c-266 -48 -502 -198 -659 -419 -62 -87 -98 -157 -132
-260 -59 -173 -55 129 -55 -4430 0 -4024 1 -4204 18 -4285 47 -218 134 -381
287 -533 104 -104 274 -209 401 -247 156 -47 -157 -44 4383 -47 4510 -2 4262
-4 4428 43 124 36 295 134 392 226 158 148 261 332 310 556 19 85 19 187 19
4287 0 4577 4 4249 -55 4430 -106 320 -369 566 -710 662 l-99 28 -4225 2
c-3610 1 -4236 -1 -4303 -13z"/>
</g>
</svg>
