<?xml version="1.0" standalone="no"?>
<!DOCTYPE svg PUBLIC "-//W3C//DTD SVG 20010904//EN"
 "http://www.w3.org/TR/2001/REC-SVG-20010904/DTD/svg10.dtd">
<svg version="1.0" xmlns="http://www.w3.org/2000/svg"
 width="1024.000000pt" height="1024.000000pt" viewBox="0 0 1024.000000 1024.000000"
 preserveAspectRatio="xMidYMid meet">
<metadata>
Created by potrace 1.11, written by Peter Selinger 2001-2013
</metadata>
<g transform="translate(0.000000,1024.000000) scale(0.100000,-0.100000)"
fill="#000000" stroke="none">
<path d="M885 10229 c-132 -17 -255 -61 -390 -138 -112 -65 -281 -235 -351
-353 -59 -101 -118 -268 -133 -381 -15 -110 -15 -8364 0 -8474 15 -113 74
-280 133 -381 70 -118 239 -288 351 -353 140 -81 257 -121 405 -139 118 -14
8322 -14 8440 0 148 18 265 58 405 139 112 65 281 235 351 353 59 101 118 268
133 381 15 110 15 8364 0 8474 -15 113 -74 280 -133 381 -70 118 -239 288
-351 353 -140 81 -257 121 -405 139 -107 13 -8352 12 -8455 -1z m4204 -1970
c102 -22 147 -77 189 -230 12 -46 243 -1081 512 -2298 270 -1218 494 -2228
498 -2245 6 -24 64 155 326 1005 176 569 328 1062 339 1096 23 71 74 137 122
157 17 8 54 17 82 21 l50 6 75 -93 c116 -142 306 -434 551 -843 121 -203 358
-599 525 -880 335 -561 415 -681 554 -831 129 -141 327 -324 351 -324 3 0 3
44 1 98 -11 234 -55 1345 -65 1632 -14 412 -14 1352 0 1650 34 721 93 1252
191 1723 47 228 78 253 292 240 l98 -6 -6 -86 c-2 -47 -14 -223 -24 -391 -40
-624 -71 -1407 -100 -2495 -17 -667 -50 -2591 -50 -2952 0 -162 -3 -233 -11
-233 -37 0 -479 412 -653 610 -386 438 -658 815 -1208 1670 -336 523 -522 804
-525 794 -1 -5 -36 -135 -78 -289 -112 -410 -314 -1113 -500 -1740 -89 -302
-175 -593 -189 -645 -32 -114 -87 -231 -123 -260 -58 -46 -112 -10 -156 105
-17 42 -288 1240 -682 3011 -359 1618 -657 2957 -660 2976 l-7 35 69 10 c95
14 154 15 212 2z m-1104 -838 l130 -6 0 -102 c0 -98 -1 -102 -31 -140 -69 -86
-189 -117 -379 -100 -236 22 -266 19 -875 -112 -1798 -384 -1772 -378 -1826
-459 -68 -100 -36 -619 86 -1402 22 -140 43 -271 46 -292 l5 -36 92 -7 c217
-16 492 16 902 105 324 70 601 109 793 110 22 0 22 -1 22 -159 l0 -159 -87 -6
c-201 -13 -401 -40 -623 -82 -520 -100 -839 -191 -912 -262 l-28 -26 0 -899 0
-900 303 6 c312 6 490 16 1192 67 916 66 1342 90 1628 90 l97 0 0 -32 c-1
-105 -130 -219 -308 -272 -70 -20 -327 -62 -472 -76 -63 -6 -279 -31 -480 -55
-201 -24 -450 -53 -555 -64 -104 -11 -422 -45 -705 -76 -664 -71 -1093 -115
-1096 -112 -1 1 -7 263 -13 582 -27 1422 -88 2280 -217 3065 -40 244 -118 642
-164 833 -16 71 -30 135 -30 144 0 24 107 149 184 216 253 218 664 393 1139
486 317 62 775 112 1207 131 433 19 587 19 975 1z"/>
</g>
</svg>
