<?xml version="1.0" standalone="no"?>
<!DOCTYPE svg PUBLIC "-//W3C//DTD SVG 20010904//EN"
 "http://www.w3.org/TR/2001/REC-SVG-20010904/DTD/svg10.dtd">
<svg version="1.0" xmlns="http://www.w3.org/2000/svg"
 width="1024.000000pt" height="1024.000000pt" viewBox="0 0 1024.000000 1024.000000"
 preserveAspectRatio="xMidYMid meet">
<metadata>
Created by potrace 1.11, written by Peter Selinger 2001-2013
</metadata>
<g transform="translate(0.000000,1024.000000) scale(0.100000,-0.100000)"
fill="#000000" stroke="none">
<path d="M854 10225 c-375 -68 -677 -324 -797 -676 -61 -177 -57 143 -57
-4429 0 -4572 -4 -4252 57 -4429 112 -327 386 -576 729 -663 l89 -23 4245 0
4245 0 89 23 c343 87 617 336 729 663 61 177 57 -143 57 4429 0 3716 -2 4187
-15 4266 -39 219 -128 390 -286 552 -127 128 -283 219 -469 270 l-95 27 -4225
2 c-3403 1 -4239 -1 -4296 -12z m4286 -1981 c56 -22 94 -78 125 -178 14 -45
250 -1098 525 -2340 275 -1243 502 -2262 504 -2264 3 -2 9 11 14 30 62 215
658 2130 671 2157 35 67 90 102 181 115 44 6 46 5 85 -41 128 -150 329 -454
583 -881 912 -1530 915 -1535 1080 -1717 121 -134 330 -325 355 -325 4 0 5 51
2 113 -11 227 -55 1331 -65 1632 -13 401 -13 1324 0 1625 27 610 80 1136 156
1555 77 419 80 423 337 417 l77 -2 0 -97 c0 -54 -4 -156 -10 -228 -42 -567
-79 -1435 -110 -2610 -16 -625 -49 -2513 -51 -2935 -1 -135 -4 -256 -8 -269
-6 -23 -10 -21 -101 55 -580 486 -994 1007 -1790 2249 -211 330 -492 757 -495
753 -1 -2 -37 -131 -80 -288 -108 -398 -313 -1115 -509 -1775 -91 -308 -178
-600 -192 -650 -75 -263 -180 -319 -261 -137 -27 61 -1358 6020 -1347 6031 3
3 36 11 72 18 84 14 198 9 252 -13z m-1218 -820 c115 -5 186 -11 190 -18 4 -6
8 -46 8 -89 0 -206 -136 -272 -491 -237 -110 11 -139 10 -235 -5 -112 -17
-541 -106 -1039 -215 -154 -33 -377 -81 -495 -106 -453 -96 -732 -164 -783
-192 -95 -51 -106 -86 -107 -323 0 -227 32 -557 95 -974 65 -427 74 -488 79
-493 12 -12 212 -14 373 -3 173 11 364 42 623 101 176 40 454 87 555 94 44 3
119 8 168 11 l87 6 0 -160 0 -159 -107 -6 c-173 -11 -350 -34 -551 -72 -556
-105 -875 -193 -958 -266 l-34 -30 0 -901 0 -900 313 6 c321 6 443 13 1262 72
852 61 1274 84 1578 85 l67 0 0 -32 c0 -46 -36 -113 -82 -152 -124 -106 -315
-157 -753 -201 -88 -9 -284 -31 -435 -50 -245 -31 -1529 -170 -2070 -225 -113
-11 -222 -23 -242 -27 l-38 -6 0 124 c-1 611 -42 1744 -85 2344 -49 665 -141
1288 -297 1987 l-41 187 39 48 c178 220 446 387 837 522 350 120 830 199 1472
242 189 12 806 29 872 23 24 -2 125 -7 225 -10z"/>
</g>
</svg>
